# xmcd CD database file
#
# Track frame offsets:
#	150
#	31273
#	53480
#	78574
#	110051
#	142521
#	166746
#	194510
#	201430
#
# Disc length: 3060 seconds
#
# Revision: 0
# Processed by: cddbd v1.5.2PL0 Copyright (c) Steve Scherf et al.
# Submitted via: CDex 1.70beta2
#
DISCID=710bf209
DTITLE=Jean Caze - Miami Jazz Scene
DYEAR=2006
DGENRE=Jazz
TTITLE0=Haitian Peace Song
TTITLE1=Miami Jazz Scene
TTITLE2=Love Love
TTITLE3=Aint Nuthin Wrong
TTITLE4=Jive collective
TTITLE5=For The Grown And Sexy
TTITLE6=Lounge
TTITLE7=Jive-ass Interlude
TTITLE8=Caravan
EXTD=YEAR: 2006
EXTT0=
EXTT1=
EXTT2=
EXTT3=
EXTT4=
EXTT5=
EXTT6=
EXTT7=
EXTT8=
PLAYORDER=
